<svg xmlns="http://www.w3.org/2000/svg" width="1600" height="900" viewBox="0 0 1600 900" role="img" aria-labelledby="title desc">
  <title id="title">LevelRep Phase 2A.1 exercise experience</title><desc id="desc">Three dark mobile screens showing the Exercise Library, Exercise Detail with static movement references, and Train foundation.</desc>
  <defs><linearGradient id="bg" x2="1" y2="1"><stop stop-color="#071123"/><stop offset="1" stop-color="#02050b"/></linearGradient><linearGradient id="blue" x2="1"><stop stop-color="#256dff"/><stop offset="1" stop-color="#7657ff"/></linearGradient></defs>
  <rect width="1600" height="900" fill="url(#bg)"/><circle cx="800" cy="450" r="560" fill="#102957" opacity=".25"/>
  <text id="heading" x="800" y="64" text-anchor="middle" fill="#f5f8ff" font-family="Inter,Segoe UI,Arial" font-size="30" font-weight="800" letter-spacing="5">PHASE 2A.1 — EXERCISE MEDIA</text>
  <text x="800" y="101" text-anchor="middle" fill="#7690b7" font-family="Inter,Segoe UI,Arial" font-size="17">250 exercises · Search &amp; filters · Visual movement references · Offline-aware</text>
  <g font-family="Inter,Segoe UI,Arial">
    <g transform="translate(150 140)"><rect width="350" height="680" rx="48" fill="#111827" stroke="#526581" stroke-width="4"/><rect x="13" y="14" width="324" height="652" rx="38" fill="#060a11"/><text x="34" y="72" fill="#5a91ff" font-size="12" font-weight="800">TRAIN</text><text x="34" y="108" fill="white" font-size="27" font-weight="800">Exercise Library</text><rect x="34" y="132" width="282" height="48" rx="13" fill="#0e1218" stroke="#303949"/><text x="54" y="162" fill="#77869b" font-size="14">Search exercises</text><rect x="34" y="193" width="136" height="43" rx="12" fill="#171d27"/><rect x="180" y="193" width="136" height="43" rx="12" fill="#171d27"/><text x="51" y="219" fill="#b7c1d1" font-size="12">Muscle: All</text><text x="195" y="219" fill="#b7c1d1" font-size="12">Equipment: All</text><text x="34" y="266" fill="#75849a" font-size="12">250 exercises</text>
      <g transform="translate(34 284)"><rect width="282" height="80" rx="15" fill="#151b25" stroke="#273141"/><rect x="8" y="9" width="70" height="62" rx="11" fill="#0b1220"/><path d="M25 43h36M20 34v18M66 34v18" stroke="#6193ff" stroke-width="5"/><text x="92" y="34" fill="white" font-size="14" font-weight="700">Barbell Bench Press</text><text x="92" y="56" fill="#8290a5" font-size="11">Chest · Barbell</text></g>
      <g transform="translate(34 375)"><rect width="282" height="80" rx="15" fill="#151b25" stroke="#273141"/><rect x="8" y="9" width="70" height="62" rx="11" fill="#0b1220"/><path d="M25 43h36M20 34v18M66 34v18" stroke="#6193ff" stroke-width="5"/><text x="92" y="34" fill="white" font-size="14" font-weight="700">Romanian Deadlift</text><text x="92" y="56" fill="#8290a5" font-size="11">Hamstrings · Barbell</text></g>
      <g transform="translate(34 466)"><rect width="282" height="80" rx="15" fill="#151b25" stroke="#273141"/><rect x="8" y="9" width="70" height="62" rx="11" fill="#0b1220"/><path d="M25 43h36M20 34v18M66 34v18" stroke="#6193ff" stroke-width="5"/><text x="92" y="34" fill="white" font-size="14" font-weight="700">Lat Pulldown</text><text x="92" y="56" fill="#8290a5" font-size="11">Back · Cable</text></g></g>
    <g transform="translate(625 120)"><rect width="350" height="720" rx="48" fill="#111827" stroke="#526581" stroke-width="4"/><rect x="13" y="14" width="324" height="692" rx="38" fill="#060a11"/><text x="34" y="70" fill="#8da0ba" font-size="13">← Exercise Library</text><text x="34" y="112" fill="#5a91ff" font-size="12" font-weight="800">CHEST</text><text x="34" y="148" fill="white" font-size="25" font-weight="800">Barbell Bench Press</text><rect x="34" y="174" width="282" height="220" rx="18" fill="#090d14" stroke="#293345"/><line x1="175" y1="174" x2="175" y2="362" stroke="#222c3b"/><path d="M65 275h80M55 257v36M155 257v36" stroke="#6597ff" stroke-width="7"/><path d="M205 275h80M195 257v36M295 257v36" stroke="#826aff" stroke-width="7"/><text x="53" y="345" fill="#cbd5e4" font-size="11">START</text><text x="194" y="345" fill="#cbd5e4" font-size="11">FINISH</text><text x="175" y="380" text-anchor="middle" fill="#75849a" font-size="10">Static position reference</text><rect x="34" y="418" width="282" height="118" rx="17" fill="#151b25" stroke="#273141"/><text x="52" y="450" fill="#718098" font-size="10">EQUIPMENT</text><text x="52" y="472" fill="white" font-size="13">Barbell</text><text x="180" y="450" fill="#718098" font-size="10">MOVEMENT</text><text x="180" y="472" fill="white" font-size="13">Horizontal Push</text><text x="52" y="505" fill="#718098" font-size="10">TRACKING</text><text x="52" y="525" fill="white" font-size="13">Weight &amp; reps</text><text x="34" y="579" fill="white" font-size="19" font-weight="750">How to perform</text><text x="48" y="610" fill="#b8c3d3" font-size="12">1. Lie back with feet planted.</text><text x="48" y="635" fill="#b8c3d3" font-size="12">2. Lower the bar with control.</text><text x="48" y="660" fill="#b8c3d3" font-size="12">3. Press to the start position.</text></g>
    <g transform="translate(1100 140)"><rect width="350" height="680" rx="48" fill="#111827" stroke="#526581" stroke-width="4"/><rect x="13" y="14" width="324" height="652" rx="38" fill="#060a11"/><text x="34" y="75" fill="#5a91ff" font-size="12" font-weight="800">TRAIN</text><text x="34" y="112" fill="white" font-size="28" font-weight="800">Build your training</text><text x="34" y="142" fill="#8c9bb0" font-size="13">The workout foundation is ready.</text><rect x="34" y="177" width="282" height="138" rx="18" fill="url(#blue)" opacity=".92"/><text x="55" y="218" fill="white" font-size="12" font-weight="800">EXERCISE LIBRARY</text><text x="55" y="250" fill="white" font-size="22" font-weight="800">Explore 250 exercises</text><text x="55" y="279" fill="#e3eaff" font-size="12">Search, filter and learn movement setup.</text><rect x="34" y="334" width="282" height="105" rx="17" fill="#151b25" stroke="#273141"/><text x="54" y="370" fill="#718098" font-size="11">WORKOUT TEMPLATES</text><text x="54" y="399" fill="white" font-size="18" font-weight="700">Phase 2B · Next</text><text x="54" y="421" fill="#8b99ad" font-size="11">Builder UI is not yet implemented.</text><rect x="34" y="458" width="282" height="105" rx="17" fill="#111720" stroke="#222c3a"/><text x="54" y="496" fill="#718098" font-size="11">WORKOUT HISTORY</text><text x="54" y="525" fill="#a8b4c5" font-size="17" font-weight="700">Planned for Phase 2D</text></g>
  </g>
</svg>
